<?xml version="1.0" encoding="UTF-8"?>
<svg id="Layer_2" data-name="Layer 2" xmlns="http://www.w3.org/2000/svg" viewBox="0 0 175.94 199.61">
  <defs>
    <style>
      .cls-1 {
        fill: #001e3c;
      }

      .cls-1, .cls-2, .cls-3, .cls-4, .cls-5, .cls-6 {
        stroke-miterlimit: 10;
      }

      .cls-1, .cls-2, .cls-3, .cls-5, .cls-6 {
        stroke-width: 5px;
      }

      .cls-1, .cls-4 {
        stroke: #004068;
      }

      .cls-2 {
        fill: #f4b631;
      }

      .cls-2, .cls-3, .cls-6 {
        stroke: #f4b631;
      }

      .cls-3 {
        fill: #f3b62d;
      }

      .cls-7 {
        fill: #004068;
      }

      .cls-4 {
        fill: #fcd37f;
        stroke-width: 4px;
      }

      .cls-5 {
        stroke: #fff;
      }

      .cls-5, .cls-8 {
        fill: #fff;
      }

      .cls-5, .cls-6 {
        stroke-linecap: round;
      }

      .cls-8 {
        font-family: ArialRoundedMTBold, 'Arial Rounded MT Bold';
        font-size: 42.06px;
      }

      .cls-6 {
        fill: none;
      }
    </style>
  </defs>
  <g id="Layer_2-2" data-name="Layer 2">
    <path class="cls-1" d="M101.37,55.2h-5.88c-2.5-16.4-16.66-28.96-33.76-28.96s-31.26,12.56-33.76,28.96h-9.26c-8.94,0-16.19,7.25-16.19,16.19v30.6c0,13.65,11.07,24.72,24.72,24.72h58.26c13.65,0,24.72-11.07,24.72-24.72v-37.91c0-4.9-3.97-8.87-8.87-8.87Z"/>
    <path class="cls-7" d="M18.14,84.03c-6.45,0-13.13-3.09-13.13-13.59v80.05c0,8.5,6.89,15.39,15.39,15.39h0c8.5,0,15.39-6.89,15.39-15.39V84.03H18.14Z"/>
    <rect class="cls-4" x="109.33" y="116.39" width="64.61" height="51.19" rx="25.59" ry="25.59"/>
    <circle class="cls-3" cx="61.78" cy="60.38" r="34.15"/>
    <path class="cls-7" d="M148.35,167.58h-13.42c-14.14,0-25.59-11.46-25.59-25.59h0c0-14.14,11.46-25.59,25.59-25.59h13.42c3.27,0,6.39,.62,9.26,1.74v-15.66c0-10.19-8.26-18.44-18.44-18.44H18.44c-10.19,0-18.44,8.26-18.44,18.44v78.7c0,10.19,8.26,18.44,18.44,18.44h120.73c10.19,0,18.44-8.26,18.44-18.44v-15.32c-2.87,1.12-6,1.74-9.26,1.74Z"/>
    <path class="cls-2" d="M95.91,60.38c0-18.86-15.29-34.15-34.15-34.15S27.61,41.52,27.61,60.38"/>
    <rect class="cls-7" x="126.09" y="133.94" width="31.52" height="15.76" rx="7.88" ry="7.88"/>
    <line class="cls-6" x1="27.58" y1="18.26" x2="27.58" y2="34.21"/>
    <line class="cls-6" x1="45.97" y1="2.5" x2="45.97" y2="21.08"/>
    <line class="cls-5" x1="61.76" y1="44.86" x2="61.76" y2="46.4"/>
    <line class="cls-5" x1="61.76" y1="74.45" x2="61.76" y2="75.99"/>
    <line class="cls-6" x1="93.25" y1="13.01" x2="93.25" y2="31.58"/>
    <text class="cls-8" transform="translate(48.81 75.49) scale(.89 1)"><tspan x="0" y="0">S</tspan></text>
  </g>
</svg>